<?xml version="1.0" encoding="UTF-8"?>
<svg width="9px" height="12px" viewBox="0 0 9 12" version="1.1" xmlns="http://www.w3.org/2000/svg" xmlns:xlink="http://www.w3.org/1999/xlink">
    <!-- Generator: Sketch 42 (36781) - http://www.bohemiancoding.com/sketch -->
    <title>Map</title>
    <desc>Created with Sketch.</desc>
    <defs></defs>
    <g id="User-Access" stroke="none" stroke-width="1" fill="none" fill-rule="evenodd">
        <g id="Dashboard" transform="translate(-62.000000, -206.000000)" fill-rule="nonzero" fill="#1F2120">
            <g id="leftMenu" transform="translate(60.000000, 125.000000)">
                <g id="Map" transform="translate(2.000000, 81.000000)">
                    <path d="M4.5,0 C2.01525,0 0,2.01525 0,4.5 C0,7.3905 3.24075,10.99725 3.75,11.5485 C3.96075,11.77725 4.137,12 4.5,12 C4.863,12 5.03925,11.77725 5.25,11.5485 C5.75925,10.99725 9,7.3905 9,4.5 C9,2.01525 6.98475,0 4.5,0 Z M4.5,7.5 C2.84325,7.5 1.5,6.15675 1.5,4.5 C1.5,2.84325 2.84325,1.5 4.5,1.5 C6.15675,1.5 7.5,2.84325 7.5,4.5 C7.5,6.15675 6.15675,7.5 4.5,7.5 Z M4.5,3 C3.672,3 3,3.672 3,4.5 C3,5.328 3.672,6 4.5,6 C5.328,6 6,5.328 6,4.5 C6,3.672 5.328,3 4.5,3 Z" id="Shape"></path>
                </g>
            </g>
        </g>
    </g>
</svg>