<?xml version="1.0" encoding="UTF-8"?>
<svg width="12px" height="12px" viewBox="0 0 12 12" version="1.1" xmlns="http://www.w3.org/2000/svg" xmlns:xlink="http://www.w3.org/1999/xlink">
    <!-- Generator: Sketch 42 (36781) - http://www.bohemiancoding.com/sketch -->
    <title>Message</title>
    <desc>Created with Sketch.</desc>
    <defs></defs>
    <g id="User-Access" stroke="none" stroke-width="1" fill="none" fill-rule="evenodd">
        <g id="Dashboard" transform="translate(-62.000000, -284.000000)" fill-rule="nonzero" fill="#000000">
            <g id="leftMenu" transform="translate(60.000000, 125.000000)">
                <g id="Message" transform="translate(2.000000, 159.000000)">
                    <path d="M5.64,0.1344 L1.008,3.3312 C0.9384,3.3792 0.9384,3.48 1.008,3.528 L5.64,6.7248 C5.8584,6.8736 6.144,6.8736 6.3624,6.7248 L10.992,3.528 C11.0616,3.48 11.0616,3.3792 10.992,3.3312 L6.36,0.1344 C6.144,-0.0144 5.856,-0.0144 5.64,0.1344 Z" id="XMLID_4_"></path>
                    <path d="M11.64,3.6288 L6.1272,7.4304 C6.0888,7.4568 6.0432,7.4712 6,7.4712 C5.9568,7.4712 5.9112,7.4568 5.8728,7.4304 L0.36,3.6288 C0.1416,3.8016 0,4.068 0,4.3704 L0,10.1232 C0,10.644 0.4224,11.0664 0.9432,11.0664 L11.0544,11.0664 C11.5752,11.0664 11.9976,10.644 11.9976,10.1232 L11.9976,4.368 C12,4.068 11.8584,3.8016 11.64,3.6288 Z M4.3464,7.3248 L1.56,10.1112 C1.5384,10.1328 1.5096,10.1448 1.4808,10.1448 C1.452,10.1448 1.4232,10.1328 1.4016,10.1112 C1.3584,10.068 1.3584,9.996 1.4016,9.9528 L4.188,7.1664 C4.2312,7.1232 4.3032,7.1232 4.3464,7.1664 C4.392,7.2096 4.392,7.2816 4.3464,7.3248 Z M10.5984,10.1112 C10.5768,10.1328 10.548,10.1448 10.5192,10.1448 C10.4904,10.1448 10.4616,10.1328 10.44,10.1112 L7.6536,7.3248 C7.6104,7.2816 7.6104,7.2096 7.6536,7.1664 C7.6968,7.1232 7.7688,7.1232 7.812,7.1664 L10.5984,9.9528 C10.6416,9.996 10.6416,10.068 10.5984,10.1112 Z" id="Shape"></path>
                </g>
            </g>
        </g>
    </g>
</svg>