<?xml version="1.0" encoding="UTF-8"?>
<svg width="12px" height="8px" viewBox="0 0 12 8" version="1.1" xmlns="http://www.w3.org/2000/svg" xmlns:xlink="http://www.w3.org/1999/xlink">
    <!-- Generator: Sketch 42 (36781) - http://www.bohemiancoding.com/sketch -->
    <title>Partners</title>
    <desc>Created with Sketch.</desc>
    <defs></defs>
    <g id="User-Access" stroke="none" stroke-width="1" fill="none" fill-rule="evenodd">
        <g id="Dashboard" transform="translate(-61.000000, -361.000000)" fill-rule="nonzero" fill="#1F2120">
            <g id="leftMenu" transform="translate(60.000000, 125.000000)">
                <g id="Partners" transform="translate(1.000000, 236.000000)">
                    <path d="M10.04118,4.14192 L8.8638,1.78116 C8.85048,1.75506 8.83284,1.73076 8.8104,1.71042 C8.7879,1.69014 8.7627,1.67526 8.73642,1.66584 L7.35582,1.16964 C7.25964,1.13508 7.15662,1.11654 7.0494,1.1175 C6.9423,1.11864 6.83976,1.13922 6.74406,1.17564 L5.69652,1.57524 C5.62278,1.60344 5.54958,1.63584 5.4774,1.67274 C5.45328,1.68522 5.42958,1.69872 5.406,1.71198 C5.32692,1.66914 5.24436,1.6314 5.1582,1.5993 C4.8834,1.49658 4.602,1.4619 4.32966,1.48518 L3.6249,1.54566 C3.59424,1.5483 3.56328,1.55778 3.53436,1.57476 C3.50544,1.5918 3.48156,1.61478 3.46278,1.64136 L1.8759,3.90042 C1.8432,3.9468 1.82574,4.00584 1.83108,4.0683 C1.8363,4.13076 1.86318,4.18554 1.9029,4.2249 L2.59314,4.90896 C2.55528,4.97826 2.53128,5.05608 2.52576,5.13936 C2.5158,5.289 2.56494,5.43348 2.6637,5.54622 C2.76258,5.6589 2.89932,5.7264 3.04908,5.73618 C3.05706,5.73672 3.06516,5.73672 3.07326,5.73702 C3.01188,5.93544 3.0621,6.1608 3.222,6.31212 C3.3177,6.40272 3.4404,6.45552 3.57078,6.46398 C3.48678,6.67218 3.5322,6.92046 3.70386,7.08288 C3.80856,7.18212 3.94548,7.23666 4.08978,7.23666 C4.24002,7.23666 4.38018,7.17798 4.48602,7.07202 C4.52538,7.3263 4.73664,7.52904 5.00382,7.5465 C5.01612,7.54734 5.02872,7.54788 5.04102,7.54788 C5.1093,7.54788 5.1747,7.53498 5.23554,7.5123 C5.3349,7.57854 5.45334,7.61502 5.5794,7.60992 C5.73432,7.60344 5.87328,7.5351 5.9772,7.42818 L5.59758,7.0494 C5.59848,7.04064 5.6001,7.03224 5.60046,7.02318 C5.60538,6.94878 5.59518,6.87678 5.57304,6.80988 L6.34998,7.58484 C6.44802,7.62474 6.5547,7.64472 6.66582,7.64022 C6.88818,7.63116 7.08624,7.52616 7.22652,7.36368 L7.30428,7.2735 C7.31148,7.26498 7.317,7.25538 7.3218,7.24506 L6.12558,6.05214 C6.09474,6.0216 6.09228,5.97078 6.11964,5.9388 C6.14706,5.907 6.19458,5.90592 6.22518,5.93646 L7.64784,7.35516 C7.72536,7.38234 7.80834,7.3956 7.89456,7.39206 C8.09004,7.38408 8.26446,7.29174 8.38776,7.14864 L8.57562,6.9312 C8.6187,6.88104 8.64438,6.81336 8.64198,6.7398 L7.39356,5.49516 C7.36308,5.46456 7.36032,5.41362 7.38768,5.38188 C7.41528,5.35002 7.46268,5.34894 7.49322,5.37948 L8.74752,6.63018 C8.799,6.64392 8.85306,6.65064 8.90862,6.64842 C9.06888,6.64194 9.21144,6.56634 9.31236,6.44916 L9.36282,6.39072 C9.4638,6.27378 9.52332,6.11538 9.51726,5.94312 C9.51114,5.77092 9.44094,5.61792 9.3321,5.50932 L8.99724,5.17548 L9.08184,5.25972 L9.98724,4.44216 C10.0257,4.4076 10.0536,4.35918 10.0638,4.3023 C10.07394,4.24548 10.06476,4.18938 10.04118,4.14192 Z M3.0648,5.49414 C2.9799,5.48862 2.90226,5.45034 2.84604,5.38626 C2.78988,5.32236 2.76216,5.24034 2.7678,5.15526 C2.77854,4.98828 2.91834,4.85754 3.08526,4.85754 C3.09234,4.85754 3.09954,4.85772 3.10662,4.85814 C3.19152,4.86378 3.26916,4.902 3.32538,4.96608 C3.38154,5.0301 3.40926,5.11206 3.4038,5.19714 C3.39216,5.3712 3.2409,5.5059 3.0648,5.49414 Z M3.60762,6.22314 C3.52584,6.22314 3.44808,6.1923 3.38868,6.13608 C3.26262,6.01692 3.25578,5.8161 3.37278,5.68914 C3.37884,5.68284 3.50316,5.55132 3.5628,5.48856 L3.59412,5.45526 C3.65496,5.39106 3.73716,5.35566 3.8256,5.35566 C3.90744,5.35566 3.98526,5.38668 4.04454,5.44302 C4.1064,5.50146 4.14186,5.58048 4.14414,5.66568 C4.14648,5.75058 4.11552,5.83152 4.05708,5.8932 L3.9684,5.98698 C3.94944,6.0069 3.9291,6.02844 3.90828,6.0504 C3.90498,6.05412 3.90132,6.05784 3.89814,6.06132 C3.88266,6.07758 3.86898,6.09198 3.85836,6.10308 C3.8523,6.10962 3.84624,6.11616 3.84,6.12252 C3.83844,6.12414 3.83724,6.12552 3.83712,6.1257 C3.77676,6.18858 3.6951,6.22314 3.60762,6.22314 Z M4.31904,6.8967 C4.2585,6.95958 4.17708,6.99414 4.08966,6.99414 C4.00782,6.99414 3.92988,6.96312 3.87066,6.90684 C3.74466,6.78768 3.73776,6.58692 3.8544,6.46056 C3.85716,6.45756 3.93018,6.38028 4.01292,6.29298 L4.01292,6.29292 L4.07436,6.22806 C4.18194,6.11418 4.21722,6.07716 4.2291,6.06426 C4.23048,6.063 4.2321,6.0615 4.23324,6.06018 L4.23324,6.06018 L4.23348,6.06 C4.24386,6.04878 4.24992,6.04254 4.2501,6.04236 C4.31082,5.97816 4.39314,5.9427 4.48164,5.9427 C4.56348,5.9427 4.64112,5.97366 4.70058,6.02994 C4.76244,6.0885 4.79772,6.16758 4.80006,6.25254 C4.8024,6.3378 4.77144,6.41868 4.71276,6.48066 C4.70706,6.48666 4.33134,6.88362 4.31904,6.8967 Z M5.0196,7.3047 C4.84428,7.29306 4.71096,7.14102 4.72254,6.96582 C4.73352,6.79872 4.87278,6.66798 5.03994,6.66798 C5.04702,6.66798 5.05422,6.66822 5.0613,6.66864 C5.23656,6.68016 5.36988,6.8322 5.35848,7.00746 C5.34696,7.1814 5.19594,7.31628 5.0196,7.3047 Z M8.9151,5.09364 L6.43506,2.62104 L6.43506,2.62104 L6.46302,2.55042 C6.47748,2.51358 6.47562,2.47008 6.45444,2.43348 C6.4332,2.397 6.39768,2.37576 6.36048,2.37378 L6.17616,2.36274 L6.17616,2.36274 L5.9748,2.3508 L5.9595,2.58948 C5.95932,2.59446 5.91942,3.13722 5.64264,3.6276 C5.3589,4.13082 4.98294,4.30434 4.92564,4.3155 C4.86162,4.32792 4.79448,4.33974 4.73868,4.33974 C4.70034,4.33974 4.67082,4.33434 4.64556,4.32276 L4.55142,4.27914 C4.51194,4.26084 4.48182,4.22724 4.46592,4.1844 C4.45044,4.14306 4.45062,4.09788 4.46592,4.05666 L5.40918,1.98654 L5.56956,1.88088 L5.63418,1.85628 L5.63406,1.85628 L6.81954,1.40412 C6.89406,1.37574 6.97212,1.36086 7.05138,1.36014 L7.05798,1.36008 C7.1349,1.36008 7.2111,1.3734 7.28406,1.39968 L8.66472,1.89588 L9.84222,4.25658 L8.9151,5.09364 Z" id="Shape"></path>
                    <path d="M10.25694,0.27342 L9.3249,0.73812 C9.19086,0.80514 9.08214,0.92322 9.03078,1.07658 C8.97948,1.23 8.99538,1.38966 9.06204,1.524 L10.28238,3.9705 C10.34928,4.10448 10.4673,4.21338 10.62096,4.2645 C10.7742,4.31586 10.93386,4.3002 11.06814,4.23324 L12,3.7683 L10.25694,0.27342 Z M11.06574,3.76974 C10.94196,3.76974 10.84128,3.66936 10.84128,3.5454 C10.84128,3.42132 10.94196,3.3207 11.06574,3.3207 C11.18976,3.3207 11.29044,3.42132 11.29044,3.5454 C11.29044,3.66936 11.18976,3.76974 11.06574,3.76974 Z" id="Shape"></path>
                    <path d="M0,3.23484 L0.85212,3.83346 C0.97476,3.91974 1.13034,3.95904 1.2897,3.93114 C1.44918,3.90336 1.58202,3.81348 1.66812,3.6909 L3.2397,1.45374 C3.32604,1.33116 3.36534,1.1754 3.33756,1.01616 C3.30954,0.85674 3.22002,0.72378 3.09726,0.6375 L2.24502,0.039 L0,3.23484 Z M0.735,3.12 C0.75348,2.99736 0.8679,2.91294 0.99036,2.93136 C1.11312,2.9499 1.19742,3.06438 1.17906,3.18696 C1.16052,3.30972 1.04622,3.39414 0.92352,3.37548 C0.80082,3.35712 0.71646,3.24276 0.735,3.12 Z" id="Shape"></path>
                </g>
            </g>
        </g>
    </g>
</svg>