<?xml version="1.0" encoding="UTF-8"?>
<svg width="10px" height="10px" viewBox="0 0 10 10" version="1.1" xmlns="http://www.w3.org/2000/svg" xmlns:xlink="http://www.w3.org/1999/xlink">
    <!-- Generator: Sketch 42 (36781) - http://www.bohemiancoding.com/sketch -->
    <title>Shop</title>
    <desc>Created with Sketch.</desc>
    <defs></defs>
    <g id="User-Access" stroke="none" stroke-width="1" fill="none" fill-rule="evenodd">
        <g id="Dashboard" transform="translate(-62.000000, -247.000000)" fill-rule="nonzero">
            <g id="leftMenu" transform="translate(60.000000, 125.000000)">
                <g id="Shop" transform="translate(2.000000, 122.000000)">
                    <path d="M3.27791667,4.19270833 C3.50791667,4.19270833 3.69458333,4.00604167 3.69458333,3.77604167 L3.69458333,2.15104167 C3.69458333,1.42458333 4.285625,0.833333333 5.01208333,0.833333333 C5.73854167,0.833333333 6.32979167,1.42458333 6.32979167,2.15104167 L6.32979167,3.77604167 C6.32979167,4.00604167 6.51625,4.19270833 6.74645833,4.19270833 C6.97645833,4.19270833 7.163125,4.00604167 7.163125,3.77604167 L7.163125,2.15104167 C7.16333333,0.965 6.19833333,0 5.01208333,0 C3.82625,0 2.86125,0.965 2.86125,2.15104167 L2.86125,3.77604167 C2.86125,4.00604167 3.04791667,4.19270833 3.27791667,4.19270833 Z" id="Shape" fill="#000000"></path>
                    <path d="M9.79166667,3.25645833 L7.58,3.25645833 L7.58,3.77604167 C7.58,4.235625 7.20625,4.609375 6.74666667,4.609375 C6.28708333,4.609375 5.91333333,4.235625 5.91333333,3.77604167 L5.91333333,3.25645833 L4.11145833,3.25645833 L4.11145833,3.77604167 C4.11145833,4.235625 3.73770833,4.609375 3.278125,4.609375 C2.81854167,4.609375 2.44479167,4.235625 2.44479167,3.77604167 L2.44479167,3.25645833 L0.208333333,3.25645833 C0.0933333333,3.25645833 0.0222916667,3.34708333 0.0495833333,3.45875 L1.5075,9.395625 C1.59541667,9.729375 1.94666667,10 2.29166667,10 L7.70833333,10 C8.05375,10 8.40458333,9.729375 8.49291667,9.395625 L9.95041667,3.45875 C9.97770833,3.346875 9.906875,3.25645833 9.79166667,3.25645833 Z" id="Shape" fill="#1F2120"></path>
                </g>
            </g>
        </g>
    </g>
</svg>