<?xml version="1.0" encoding="UTF-8"?>
<svg width="114px" height="56px" viewBox="0 0 114 56" version="1.1" xmlns="http://www.w3.org/2000/svg" xmlns:xlink="http://www.w3.org/1999/xlink">
    <!-- Generator: Sketch 42 (36781) - http://www.bohemiancoding.com/sketch -->
    <title>helicopter</title>
    <desc>Created with Sketch.</desc>
    <defs></defs>
    <g id="Guest-Access" stroke="none" stroke-width="1" fill="none" fill-rule="evenodd">
        <g id="LandingPage" transform="translate(-393.000000, -91.000000)">
            <g id="block1" transform="translate(0.000000, 86.000000)">
                <g id="helicopter" transform="translate(451.500000, 30.500000) rotate(-8.000000) translate(-451.500000, -30.500000) translate(396.000000, 8.000000)">
                    <g id="Group" stroke-width="1" fill-rule="evenodd" transform="translate(8.089069, 39.150000)" fill="#1F2120">
                        <path d="M0.808906883,5.805 C0.449392713,5.805 0.134817814,5.49 0.134817814,5.13 L0.134817814,0.99 C0.134817814,0.63 0.449392713,0.315 0.808906883,0.315 C1.16842105,0.315 1.48299595,0.63 1.48299595,0.99 L1.48299595,5.13 C1.43805668,5.49 1.16842105,5.805 0.808906883,5.805 Z" id="Shape" fill-rule="nonzero"></path>
                        <path d="M31.0979757,5.805 C30.7384615,5.805 30.4238866,5.49 30.4238866,5.13 L30.4238866,0.99 C30.4238866,0.63 30.7384615,0.315 31.0979757,0.315 C31.4574899,0.315 31.7720648,0.63 31.7720648,0.99 L31.7720648,5.13 C31.7720648,5.49 31.4574899,5.805 31.0979757,5.805 Z" id="Shape" fill-rule="nonzero"></path>
                    </g>
                    <path d="M51.6801619,44.955 L1.70769231,44.955 C1.34817814,44.955 1.03360324,44.64 1.03360324,44.28 C1.03360324,43.92 1.34817814,43.605 1.70769231,43.605 L51.6801619,43.605 C52.0396761,43.605 52.354251,43.92 52.354251,44.28 C52.354251,44.64 52.0396761,44.955 51.6801619,44.955 Z" id="Shape" fill="#1F2120" fill-rule="nonzero"></path>
                    <path d="M52.2643725,44.955 C52.0846154,44.955 51.9497976,44.91 51.8149798,44.775 C51.5453441,44.505 51.5453441,44.1 51.7700405,43.83 L53.7923077,41.67 C54.0619433,41.4 54.4663968,41.4 54.7360324,41.625 C55.005668,41.895 55.005668,42.3 54.7809717,42.57 L52.7587045,44.73 C52.5789474,44.865 52.4441296,44.955 52.2643725,44.955 Z" id="Shape" fill="#1F2120" fill-rule="nonzero"></path>
                    <g id="Group" stroke-width="1" fill-rule="evenodd">
                        <g fill-rule="nonzero">
                            <rect id="Rectangle-path" fill="#FEBF39" x="0.808906883" y="1.125" width="75.1834008" height="2.835"></rect>
                            <path d="M75.9923077,4.59 L0.808906883,4.59 C0.449392713,4.59 0.134817814,4.275 0.134817814,3.915 L0.134817814,1.08 C0.134817814,0.72 0.449392713,0.405 0.808906883,0.405 L75.9923077,0.405 C76.3518219,0.405 76.6663968,0.72 76.6663968,1.08 L76.6663968,3.915 C76.6663968,4.32 76.3518219,4.59 75.9923077,4.59 Z M1.43805668,3.285 L75.3182186,3.285 L75.3182186,1.8 L1.43805668,1.8 L1.43805668,3.285 Z" id="Shape" fill="#1F2120"></path>
                        </g>
                        <path d="M38.3781377,6.615 C38.0186235,6.615 37.7040486,6.3 37.7040486,5.94 L37.7040486,3.915 C37.7040486,3.555 38.0186235,3.24 38.3781377,3.24 C38.7376518,3.24 39.0522267,3.555 39.0522267,3.915 L39.0522267,5.94 C39.0522267,6.345 38.7376518,6.615 38.3781377,6.615 Z" id="Shape" fill="#1F2120" fill-rule="nonzero"></path>
                    </g>
                    <path d="M99.5854251,4.86 C99.5854251,4.86 100.394332,15.21 85.8340081,15.21 L104.079352,15.21 L104.079352,4.86 L99.5854251,4.86 Z" id="Shape" fill="#FFFFFF" fill-rule="nonzero"></path>
                    <path d="M104.079352,15.885 L85.8340081,15.885 C85.4744939,15.885 85.159919,15.57 85.159919,15.21 C85.159919,14.85 85.4744939,14.535 85.8340081,14.535 C90.7773279,14.535 94.4174089,13.32 96.6194332,10.935 C99.1360324,8.235 98.911336,4.95 98.911336,4.905 C98.911336,4.725 98.9562753,4.545 99.0910931,4.41 C99.2259109,4.275 99.405668,4.185 99.5854251,4.185 L104.079352,4.185 C104.438866,4.185 104.753441,4.5 104.753441,4.86 L104.753441,15.21 C104.753441,15.57 104.438866,15.885 104.079352,15.885 Z M93.608502,14.535 L103.405263,14.535 L103.405263,5.49 L100.214575,5.49 C100.169636,6.75 99.7651822,9.45 97.5631579,11.835 C96.5295547,12.96 95.1813765,13.905 93.608502,14.535 Z" id="Shape" fill="#1F2120" fill-rule="nonzero"></path>
                    <g id="Group" stroke-width="1" fill-rule="evenodd" transform="translate(0.898785, 8.550000)">
                        <path d="M103.180567,6.66 L55.4550607,6.66 L55.4550607,6.66 C55.4550607,3.555 52.9384615,1.035 49.8376518,1.035 L26.0198381,1.035 C12.088664,1.035 0.763967611,12.33 0.763967611,26.325 L0.763967611,31.59 L47.8603239,31.59 L47.8603239,31.59 C47.8603239,24.165 53.8821862,18.09 61.3421053,18.09 L92.5748988,18.09 C98.417004,18.09 103.135628,13.365 103.135628,7.515 L103.135628,6.66 L103.180567,6.66 Z" id="Shape" fill="#FFFFFF" fill-rule="nonzero"></path>
                        <path d="M47.9502024,32.265 L0.853846154,32.265 C0.494331984,32.265 0.179757085,31.95 0.179757085,31.59 L0.179757085,26.325 C0.179757085,12.015 11.8190283,0.405 26.0647773,0.405 L49.8825911,0.405 C53.1182186,0.405 55.7696356,2.88 56.0842105,6.03 L103.180567,6.03 C103.540081,6.03 103.854656,6.345 103.854656,6.705 L103.854656,7.605 C103.854656,13.815 98.8214575,18.855 92.6198381,18.855 L61.3870445,18.855 C54.3315789,18.855 48.5793522,24.615 48.5793522,31.68 C48.6242915,31.95 48.3097166,32.265 47.9502024,32.265 Z M1.48299595,30.915 L47.2761134,30.915 C47.6356275,23.445 53.837247,17.415 61.3870445,17.415 L92.6198381,17.415 C98.0574899,17.415 102.506478,12.96 102.506478,7.515 L102.506478,7.29 L55.4550607,7.29 C55.0955466,7.29 54.7809717,6.975 54.7809717,6.615 C54.7809717,3.87 52.5789474,1.665 49.8376518,1.665 L26.0198381,1.665 C12.4481781,1.665 1.43805668,12.69 1.43805668,26.28 L1.43805668,30.915 L1.48299595,30.915 Z" id="Shape" fill="#1F2120" fill-rule="nonzero"></path>
                    </g>
                    <path d="M43.8157895,14.67 L36.4008097,14.67 C35.1874494,14.67 34.2437247,15.66 34.2437247,16.83 L34.2437247,35.595 C34.2437247,36.81 35.2323887,37.755 36.4008097,37.755 L43.7708502,37.755 C44.9842105,37.755 45.9279352,36.765 45.9279352,35.595 L45.9279352,16.83 C45.9728745,15.66 44.9842105,14.67 43.8157895,14.67 Z" id="Shape" fill="#FFFFFF" fill-rule="nonzero"></path>
                    <path d="M41.9283401,13.995 L34.5582996,13.995 C33.3449393,13.995 32.4012146,14.985 32.4012146,16.155 L32.4012146,34.92 C32.4012146,36.135 33.3898785,37.08 34.5582996,37.08 L41.9283401,37.08 C43.1417004,37.08 44.0854251,36.09 44.0854251,34.92 L44.0854251,16.155 C44.1303644,14.985 43.1417004,13.995 41.9283401,13.995 Z" id="Shape" fill-rule="nonzero"></path>
                    <path d="M43.0982354,37.935 L35.728195,37.935 C34.1553205,37.935 32.8970209,36.675 32.8970209,35.1 L32.8970209,16.335 C32.8970209,14.76 34.1553205,13.5 35.728195,13.5 L43.0982354,13.5 C44.6711099,13.5 45.9294095,14.76 45.9294095,16.335 L45.9294095,35.1 C45.9294095,36.63 44.6711099,37.935 43.0982354,37.935 Z M35.728195,14.805 C34.8743488,14.805 34.2002597,15.48 34.2002597,16.335 L34.2002597,35.1 C34.2002597,35.955 34.8743488,36.63 35.728195,36.63 L43.0982354,36.63 C43.9520816,36.63 44.6261707,35.955 44.6261707,35.1 L44.6261707,16.335 C44.6261707,15.48 43.9520816,14.805 43.0982354,14.805 L35.728195,14.805 Z" id="Shape" fill="#1F2120" fill-rule="nonzero"></path>
                    <rect id="Rectangle-path" fill="#FEBF39" fill-rule="nonzero" x="36.0427699" y="17.1" width="6.69595142" height="5.445"></rect>
                    <path d="M42.5140249,22.995 L35.8180735,22.995 C35.4585593,22.995 35.1439844,22.68 35.1439844,22.32 L35.1439844,16.875 C35.1439844,16.515 35.4585593,16.2 35.8180735,16.2 L42.5140249,16.2 C42.8735391,16.2 43.188114,16.515 43.188114,16.875 L43.188114,22.32 C43.188114,22.68 42.8735391,22.995 42.5140249,22.995 Z M36.4921626,21.69 L41.8399358,21.69 L41.8399358,17.55 L36.4921626,17.55 L36.4921626,21.69 Z" id="Shape" fill="#1F2120" fill-rule="nonzero"></path>
                    <path d="M4.31417004,29.475 C6.74089069,19.215 15.9534413,11.565 26.9635628,11.565 L26.9635628,11.565 C27.9522267,11.565 28.7611336,12.375 28.7611336,13.365 L28.7611336,29.475 L4.31417004,29.475 Z M3.86477733,32.13 C3.77489879,33.03 3.68502024,33.93 3.68502024,34.875 L3.68502024,35.1 L26.9635628,35.1 C27.9522267,35.1 28.7611336,34.29 28.7611336,33.3 L28.7611336,32.13 L3.86477733,32.13 Z" id="Shape" fill="#FEBF39" fill-rule="nonzero"></path>
                    <path d="M26.9635628,35.775 L3.68502024,35.775 C3.32550607,35.775 3.01093117,35.46 3.01093117,35.1 L3.01093117,34.875 C3.01093117,33.93 3.05587045,32.985 3.19068826,32.085 C3.23562753,31.77 3.50526316,31.5 3.86477733,31.5 L28.7611336,31.5 C29.1206478,31.5 29.4352227,31.815 29.4352227,32.175 L29.4352227,33.345 C29.4352227,34.65 28.3117409,35.775 26.9635628,35.775 Z M4.35910931,34.47 L26.9635628,34.47 C27.5927126,34.47 28.1319838,33.93 28.1319838,33.3 L28.1319838,32.805 L4.49392713,32.805 C4.40404858,33.345 4.35910931,33.885 4.35910931,34.47 Z M28.7611336,30.15 L4.31417004,30.15 C4.08947368,30.15 3.9097166,30.06 3.77489879,29.88 C3.64008097,29.7 3.5951417,29.52 3.64008097,29.295 C4.8534413,24.12 7.8194332,19.44 11.9538462,16.11 C16.2230769,12.69 21.3910931,10.845 26.9186235,10.845 C28.2668016,10.845 29.3902834,11.97 29.3902834,13.32 L29.3902834,29.43 C29.4352227,29.88 29.165587,30.15 28.7611336,30.15 Z M5.16801619,28.845 L28.0870445,28.845 L28.0870445,13.41 C28.0870445,12.78 27.5477733,12.24 26.9186235,12.24 C16.7174089,12.24 7.86437247,19.035 5.16801619,28.845 Z" id="Shape" fill="#1F2120" fill-rule="nonzero"></path>
                    <g id="Group" stroke-width="1" fill-rule="evenodd" transform="translate(83.137652, 5.850000)">
                        <g transform="translate(10.785425, 0.000000)" id="Shape" fill-rule="nonzero">
                            <path d="M3.10080972,0.765 C1.93238866,0.765 0.988663968,1.755 1.07854251,2.925 L1.84251012,14.175 L4.35910931,14.175 L5.12307692,2.925 C5.21295547,1.755 4.26923077,0.765 3.10080972,0.765 Z" fill="#FEBF39"></path>
                            <path d="M4.35910931,14.85 L1.84251012,14.85 C1.48299595,14.85 1.21336032,14.58 1.16842105,14.22 L0.404453441,2.97 C0.35951417,2.205 0.629149798,1.485 1.12348178,0.945 C1.61781377,0.405 2.33684211,0.09 3.10080972,0.09 C3.86477733,0.09 4.58380567,0.405 5.07813765,0.945 C5.57246964,1.485 5.84210526,2.25 5.79716599,2.97 L5.03319838,14.22 C4.98825911,14.58 4.67368421,14.85 4.35910931,14.85 Z M2.42672065,13.5 L3.72995951,13.5 L4.44898785,2.88 C4.49392713,2.475 4.35910931,2.115 4.08947368,1.845 C3.81983806,1.575 3.46032389,1.395 3.10080972,1.395 C2.69635628,1.395 2.33684211,1.53 2.11214575,1.845 C1.84251012,2.115 1.70769231,2.475 1.75263158,2.88 L2.42672065,13.5 Z" fill="#1F2120"></path>
                        </g>
                        <g transform="translate(0.000000, 13.950000)" id="Shape" fill-rule="nonzero">
                            <path d="M1.21336032,8.82 C1.79757085,9.855 3.14574899,10.17 4.13441296,9.495 L13.4817814,3.195 L12.2234818,0.99 L2.11214575,5.94 C0.988663968,6.48 0.629149798,7.785 1.21336032,8.82 Z" fill="#FEBF39"></path>
                            <path d="M2.9659919,10.485 C2.74129555,10.485 2.56153846,10.44 2.38178138,10.395 C1.66275304,10.215 1.03360324,9.765 0.674089069,9.135 C0.314574899,8.505 0.224696356,7.695 0.449392713,6.975 C0.674089069,6.255 1.16842105,5.67 1.84251012,5.355 L11.9538462,0.405 C12.2684211,0.27 12.6279352,0.36 12.8076923,0.675 L14.0659919,2.88 C14.245749,3.195 14.1558704,3.555 13.8412955,3.78 L4.49392713,10.08 C3.99959514,10.305 3.50526316,10.485 2.9659919,10.485 Z M11.9089069,1.89 L2.38178138,6.57 C2.02226721,6.75 1.79757085,7.02 1.66275304,7.425 C1.52793522,7.785 1.57287449,8.19 1.79757085,8.505 C1.97732794,8.82 2.29190283,9.09 2.69635628,9.18 C3.05587045,9.27 3.46032389,9.18 3.77489879,9 L12.582996,3.06 L11.9089069,1.89 Z" fill="#1F2120"></path>
                        </g>
                        <g transform="translate(13.481781, 13.950000)" id="Shape" fill-rule="nonzero">
                            <path d="M13.0773279,8.82 C13.6615385,7.785 13.257085,6.48 12.2234818,5.985 L2.11214575,1.035 L0.853846154,3.24 L10.2012146,9.54 C11.1449393,10.125 12.4931174,9.81 13.0773279,8.82 Z" fill="#FEBF39"></path>
                            <path d="M11.3246964,10.485 C10.7854251,10.485 10.2461538,10.305 9.79676113,10.035 L0.449392713,3.735 C0.179757085,3.555 0.0898785425,3.15 0.224696356,2.835 L1.48299595,0.63 C1.66275304,0.315 2.02226721,0.225 2.33684211,0.36 L12.4481781,5.31 C13.1222672,5.625 13.6165992,6.255 13.8412955,6.93 C14.0659919,7.65 13.9761134,8.415 13.6165992,9.09 C13.257085,9.72 12.6279352,10.215 11.9089069,10.35 C11.7291498,10.44 11.5044534,10.485 11.3246964,10.485 Z M1.70769231,2.97 L10.5157895,8.91 C10.8303644,9.135 11.2348178,9.18 11.594332,9.09 C11.9538462,9 12.2684211,8.775 12.4931174,8.415 C12.6728745,8.1 12.7178138,7.695 12.6279352,7.335 C12.4931174,6.975 12.2684211,6.66 11.9089069,6.48 L2.38178138,1.8 L1.70769231,2.97 Z" fill="#1F2120"></path>
                        </g>
                    </g>
                    <g id="Group" stroke-width="1" fill-rule="evenodd" transform="translate(93.024291, 17.100000)">
                        <ellipse id="Oval" fill="#FEBF39" fill-rule="nonzero" cx="3.99959514" cy="3.825" rx="3.14574899" ry="3.15"></ellipse>
                        <path d="M3.99959514,7.65 C1.88744939,7.65 0.179757085,5.94 0.179757085,3.825 C0.179757085,1.71 1.88744939,0 3.99959514,0 C6.11174089,0 7.8194332,1.71 7.8194332,3.825 C7.8194332,5.94 6.11174089,7.65 3.99959514,7.65 Z M3.99959514,1.305 C2.60647773,1.305 1.48299595,2.43 1.48299595,3.825 C1.48299595,5.22 2.60647773,6.345 3.99959514,6.345 C5.39271255,6.345 6.51619433,5.22 6.51619433,3.825 C6.51619433,2.43 5.39271255,1.305 3.99959514,1.305 Z" id="Shape" fill="#1F2120" fill-rule="nonzero"></path>
                    </g>
                    <path d="M46.8267206,10.26 L29.9295547,10.26 C29.5700405,10.26 29.2554656,9.945 29.2554656,9.585 C29.2554656,7.2 31.1878543,5.31 33.5246964,5.31 L43.1866397,5.31 C45.5684211,5.31 47.4558704,7.245 47.4558704,9.585 C47.5008097,9.99 47.1862348,10.26 46.8267206,10.26 Z" id="Shape" fill="#1F2120" fill-rule="nonzero"></path>
                </g>
            </g>
        </g>
    </g>
</svg>