<?xml version="1.0" encoding="UTF-8"?>
<svg width="55px" height="74px" viewBox="0 0 55 74" version="1.1" xmlns="http://www.w3.org/2000/svg" xmlns:xlink="http://www.w3.org/1999/xlink">
    <!-- Generator: Sketch 42 (36781) - http://www.bohemiancoding.com/sketch -->
    <title>OILBarrels</title>
    <desc>Created with Sketch.</desc>
    <defs></defs>
    <g id="Guest-Access" stroke="none" stroke-width="1" fill="none" fill-rule="evenodd">
        <g id="LandingPage" transform="translate(-1056.000000, -350.000000)" fill-rule="nonzero">
            <g id="block1" transform="translate(0.000000, 86.000000)">
                <g id="OILBarrels" transform="translate(1056.000000, 264.000000)">
                    <g id="OILBarrel" transform="translate(0.000000, 36.000000)">
                        <path d="M24.1532258,14.631016 L24.1532258,11.1561497 C24.1532258,10.8106952 23.8709677,10.5262032 23.5282258,10.5262032 C23.1854839,10.5262032 22.9032258,10.2417112 22.9032258,9.89625668 L22.9032258,2.98716578 C22.9032258,2.64171123 22.6209677,2.35721925 22.2782258,2.35721925 L2.62096774,2.35721925 C2.27822581,2.35721925 1.99596774,2.64171123 1.99596774,2.98716578 L1.99596774,9.89625668 C1.99596774,10.2417112 1.71370968,10.5262032 1.37096774,10.5262032 C1.00806452,10.5262032 0.725806452,10.8106952 0.725806452,11.1561497 L0.725806452,14.631016 C0.725806452,14.9764706 1.00806452,15.2609626 1.35080645,15.2609626 C1.71370968,15.2609626 1.99596774,15.5454545 1.99596774,15.8909091 L1.99596774,23.8363636 C1.99596774,24.1818182 1.71370968,24.4663102 1.37096774,24.4663102 C1.00806452,24.4663102 0.725806452,24.7508021 0.725806452,25.0962567 L0.725806452,28.571123 C0.725806452,28.9165775 1.00806452,29.2010695 1.35080645,29.2010695 C1.71370968,29.2010695 1.99596774,29.4855615 1.99596774,29.831016 L1.99596774,36.740107 C1.99596774,37.0855615 2.27822581,37.3700535 2.62096774,37.3700535 L22.2782258,37.3700535 C22.6209677,37.3700535 22.9032258,37.0855615 22.9032258,36.740107 L22.9032258,29.831016 C22.9032258,29.4855615 23.1854839,29.2010695 23.5282258,29.2010695 C23.8709677,29.2010695 24.1532258,28.9165775 24.1532258,28.571123 L24.1532258,25.0962567 C24.1532258,24.7508021 23.8709677,24.4663102 23.5282258,24.4663102 C23.1854839,24.4663102 22.9032258,24.1818182 22.9032258,23.8363636 L22.9032258,15.8909091 C22.9032258,15.5454545 23.1854839,15.2609626 23.5282258,15.2609626 C23.891129,15.2609626 24.1532258,14.9764706 24.1532258,14.631016 Z" id="Shape" fill="#FFFFFF"></path>
                        <path d="M11.6532258,37.2887701 L2.68145161,37.2887701 C2.33870968,37.2887701 2.05645161,37.0042781 2.05645161,36.6588235 L2.05645161,29.7497326 C2.05645161,29.4042781 1.77419355,29.1197861 1.43145161,29.1197861 L1.41129032,29.1197861 C1.06854839,29.1197861 0.786290323,28.8352941 0.786290323,28.4898396 L0.786290323,25.0149733 C0.786290323,24.6695187 1.06854839,24.3850267 1.41129032,24.3850267 L1.43145161,24.3850267 C1.77419355,24.3850267 2.05645161,24.1005348 2.05645161,23.7550802 L2.05645161,15.8096257 C2.05645161,15.4641711 1.77419355,15.1796791 1.43145161,15.1796791 L1.41129032,15.1796791 C1.06854839,15.1796791 0.786290323,14.8951872 0.786290323,14.5497326 L0.786290323,11.0748663 C0.786290323,10.7294118 1.06854839,10.4449198 1.41129032,10.4449198 L1.43145161,10.4449198 C1.77419355,10.4449198 2.05645161,10.1604278 2.05645161,9.81497326 L2.05645161,2.90588235 C2.05645161,2.56042781 2.33870968,2.27593583 2.68145161,2.27593583 L11.6532258,2.27593583 C11.3104839,2.27593583 11.0282258,2.56042781 11.0282258,2.90588235 L11.0282258,9.81497326 C11.0282258,10.1604278 10.7459677,10.4449198 10.4032258,10.4449198 L10.3830645,10.4449198 C10.0403226,10.4449198 9.75806452,10.7294118 9.75806452,11.0748663 L9.75806452,14.631016 C9.75806452,14.9764706 10.0403226,15.2609626 10.3830645,15.2609626 L10.4032258,15.2609626 C10.7459677,15.2609626 11.0282258,15.5454545 11.0282258,15.8909091 L11.0282258,23.8363636 C11.0282258,24.1818182 10.7459677,24.4663102 10.4032258,24.4663102 L10.3830645,24.4663102 C10.0403226,24.4663102 9.75806452,24.7508021 9.75806452,25.0962567 L9.75806452,28.571123 C9.75806452,28.9165775 10.0403226,29.2010695 10.3830645,29.2010695 L10.4032258,29.2010695 C10.7459677,29.2010695 11.0282258,29.4855615 11.0282258,29.831016 L11.0282258,36.740107 C11.0282258,37.0245989 11.3104839,37.2887701 11.6532258,37.2887701 Z" id="Shape" fill="#FEBF39"></path>
                        <path d="M22.3185484,37.8983957 L2.66129032,37.8983957 C1.99596774,37.8983957 1.43145161,37.3497326 1.43145161,36.6588235 L1.43145161,29.7497326 L1.39112903,29.7294118 C0.725806452,29.7294118 0.161290323,29.1807487 0.161290323,28.4898396 L0.161290323,25.0149733 C0.161290323,24.344385 0.705645161,23.7754011 1.39112903,23.7754011 L1.41129032,23.7754011 L1.43145161,15.8299465 L1.39112903,15.8096257 C0.725806452,15.8096257 0.161290323,15.2609626 0.161290323,14.5700535 L0.161290323,11.0951872 C0.161290323,10.4245989 0.705645161,9.85561497 1.39112903,9.85561497 L1.41129032,9.85561497 L1.43145161,2.94652406 C1.43145161,2.27593583 1.97580645,1.70695187 2.66129032,1.70695187 L22.3185484,1.70695187 C22.983871,1.70695187 23.5483871,2.25561497 23.5483871,2.94652406 L23.5483871,9.85561497 C24.233871,9.87593583 24.7782258,10.4245989 24.7782258,11.0951872 L24.7782258,14.631016 C24.7782258,15.3016043 24.233871,15.8705882 23.5483871,15.8705882 L23.5282258,23.8160428 C24.2137097,23.8363636 24.7580645,24.3850267 24.7580645,25.055615 L24.7580645,28.5304813 C24.7580645,29.2010695 24.2137097,29.7700535 23.5282258,29.7700535 L23.5080645,36.6791444 C23.5282258,37.3497326 22.983871,37.8983957 22.3185484,37.8983957 Z M1.41129032,25.055615 L1.39112903,28.5304813 L1.43145161,28.5508021 C2.09677419,28.5508021 2.66129032,29.0994652 2.66129032,29.7903743 L2.66129032,36.6994652 L22.3185484,36.7197861 C22.3185484,36.7197861 22.3387097,36.7197861 22.3387097,36.6994652 L22.3387097,29.7903743 C22.3387097,29.1197861 22.8830645,28.5508021 23.5685484,28.5508021 L23.5887097,25.0759358 C22.9032258,25.055615 22.358871,24.5069519 22.358871,23.8363636 L22.358871,15.8909091 C22.358871,15.2203209 22.9032258,14.6513369 23.5887097,14.6513369 L23.608871,11.1764706 C22.9233871,11.1561497 22.3790323,10.6074866 22.3790323,9.9368984 L22.3790323,3.02780749 L2.72177419,3.00748663 L2.7016129,9.91657754 C2.7016129,10.5871658 2.15725806,11.1561497 1.47177419,11.1561497 L1.4516129,11.1561497 L1.43145161,14.631016 L1.47177419,14.6513369 C2.13709677,14.6513369 2.7016129,15.2 2.7016129,15.8909091 L2.7016129,23.8363636 C2.7016129,24.5069519 2.15725806,25.0759358 1.47177419,25.0759358 L1.41129032,25.0759358 L1.41129032,25.055615 Z" id="Shape" fill="#1F2120"></path>
                        <rect id="Rectangle-path" fill="#1F2120" x="0.0403225806" y="1.78823529" width="24.9596774" height="1.21925134"></rect>
                        <rect id="Rectangle-path" fill="#1F2120" x="0.0403225806" y="36.6791444" width="24.9596774" height="1.21925134"></rect>
                        <rect id="Rectangle-path" fill="#1F2120" x="2.03629032" y="9.30695187" width="17.2983871" height="1.21925134"></rect>
                        <rect id="Rectangle-path" fill="#1F2120" x="2.03629032" y="14.8748663" width="17.2983871" height="1.21925134"></rect>
                        <rect id="Rectangle-path" fill="#1F2120" x="2.03629032" y="23.4705882" width="17.2983871" height="1.21925134"></rect>
                        <rect id="Rectangle-path" fill="#1F2120" x="2.03629032" y="29.0181818" width="17.2983871" height="1.21925134"></rect>
                        <path d="M22.0564516,3.00748663 L17.2177419,3.00748663 L17.2177419,0.142245989 L22.0564516,0.142245989 L22.0564516,3.00748663 Z M18.4475806,1.78823529 L20.8669355,1.78823529 L20.8669355,1.36149733 L18.4475806,1.36149733 L18.4475806,1.78823529 Z" id="Shape" fill="#1F2120"></path>
                    </g>
                    <g id="OILBarrel" transform="translate(14.000000, 0.000000)">
                        <path d="M24.1532258,14.631016 L24.1532258,11.1561497 C24.1532258,10.8106952 23.8709677,10.5262032 23.5282258,10.5262032 C23.1854839,10.5262032 22.9032258,10.2417112 22.9032258,9.89625668 L22.9032258,2.98716578 C22.9032258,2.64171123 22.6209677,2.35721925 22.2782258,2.35721925 L2.62096774,2.35721925 C2.27822581,2.35721925 1.99596774,2.64171123 1.99596774,2.98716578 L1.99596774,9.89625668 C1.99596774,10.2417112 1.71370968,10.5262032 1.37096774,10.5262032 C1.00806452,10.5262032 0.725806452,10.8106952 0.725806452,11.1561497 L0.725806452,14.631016 C0.725806452,14.9764706 1.00806452,15.2609626 1.35080645,15.2609626 C1.71370968,15.2609626 1.99596774,15.5454545 1.99596774,15.8909091 L1.99596774,23.8363636 C1.99596774,24.1818182 1.71370968,24.4663102 1.37096774,24.4663102 C1.00806452,24.4663102 0.725806452,24.7508021 0.725806452,25.0962567 L0.725806452,28.571123 C0.725806452,28.9165775 1.00806452,29.2010695 1.35080645,29.2010695 C1.71370968,29.2010695 1.99596774,29.4855615 1.99596774,29.831016 L1.99596774,36.740107 C1.99596774,37.0855615 2.27822581,37.3700535 2.62096774,37.3700535 L22.2782258,37.3700535 C22.6209677,37.3700535 22.9032258,37.0855615 22.9032258,36.740107 L22.9032258,29.831016 C22.9032258,29.4855615 23.1854839,29.2010695 23.5282258,29.2010695 C23.8709677,29.2010695 24.1532258,28.9165775 24.1532258,28.571123 L24.1532258,25.0962567 C24.1532258,24.7508021 23.8709677,24.4663102 23.5282258,24.4663102 C23.1854839,24.4663102 22.9032258,24.1818182 22.9032258,23.8363636 L22.9032258,15.8909091 C22.9032258,15.5454545 23.1854839,15.2609626 23.5282258,15.2609626 C23.891129,15.2609626 24.1532258,14.9764706 24.1532258,14.631016 Z" id="Shape" fill="#FFFFFF"></path>
                        <path d="M11.6532258,37.2887701 L2.68145161,37.2887701 C2.33870968,37.2887701 2.05645161,37.0042781 2.05645161,36.6588235 L2.05645161,29.7497326 C2.05645161,29.4042781 1.77419355,29.1197861 1.43145161,29.1197861 L1.41129032,29.1197861 C1.06854839,29.1197861 0.786290323,28.8352941 0.786290323,28.4898396 L0.786290323,25.0149733 C0.786290323,24.6695187 1.06854839,24.3850267 1.41129032,24.3850267 L1.43145161,24.3850267 C1.77419355,24.3850267 2.05645161,24.1005348 2.05645161,23.7550802 L2.05645161,15.8096257 C2.05645161,15.4641711 1.77419355,15.1796791 1.43145161,15.1796791 L1.41129032,15.1796791 C1.06854839,15.1796791 0.786290323,14.8951872 0.786290323,14.5497326 L0.786290323,11.0748663 C0.786290323,10.7294118 1.06854839,10.4449198 1.41129032,10.4449198 L1.43145161,10.4449198 C1.77419355,10.4449198 2.05645161,10.1604278 2.05645161,9.81497326 L2.05645161,2.90588235 C2.05645161,2.56042781 2.33870968,2.27593583 2.68145161,2.27593583 L11.6532258,2.27593583 C11.3104839,2.27593583 11.0282258,2.56042781 11.0282258,2.90588235 L11.0282258,9.81497326 C11.0282258,10.1604278 10.7459677,10.4449198 10.4032258,10.4449198 L10.3830645,10.4449198 C10.0403226,10.4449198 9.75806452,10.7294118 9.75806452,11.0748663 L9.75806452,14.631016 C9.75806452,14.9764706 10.0403226,15.2609626 10.3830645,15.2609626 L10.4032258,15.2609626 C10.7459677,15.2609626 11.0282258,15.5454545 11.0282258,15.8909091 L11.0282258,23.8363636 C11.0282258,24.1818182 10.7459677,24.4663102 10.4032258,24.4663102 L10.3830645,24.4663102 C10.0403226,24.4663102 9.75806452,24.7508021 9.75806452,25.0962567 L9.75806452,28.571123 C9.75806452,28.9165775 10.0403226,29.2010695 10.3830645,29.2010695 L10.4032258,29.2010695 C10.7459677,29.2010695 11.0282258,29.4855615 11.0282258,29.831016 L11.0282258,36.740107 C11.0282258,37.0245989 11.3104839,37.2887701 11.6532258,37.2887701 Z" id="Shape" fill="#FEBF39"></path>
                        <path d="M22.3185484,37.8983957 L2.66129032,37.8983957 C1.99596774,37.8983957 1.43145161,37.3497326 1.43145161,36.6588235 L1.43145161,29.7497326 L1.39112903,29.7294118 C0.725806452,29.7294118 0.161290323,29.1807487 0.161290323,28.4898396 L0.161290323,25.0149733 C0.161290323,24.344385 0.705645161,23.7754011 1.39112903,23.7754011 L1.41129032,23.7754011 L1.43145161,15.8299465 L1.39112903,15.8096257 C0.725806452,15.8096257 0.161290323,15.2609626 0.161290323,14.5700535 L0.161290323,11.0951872 C0.161290323,10.4245989 0.705645161,9.85561497 1.39112903,9.85561497 L1.41129032,9.85561497 L1.43145161,2.94652406 C1.43145161,2.27593583 1.97580645,1.70695187 2.66129032,1.70695187 L22.3185484,1.70695187 C22.983871,1.70695187 23.5483871,2.25561497 23.5483871,2.94652406 L23.5483871,9.85561497 C24.233871,9.87593583 24.7782258,10.4245989 24.7782258,11.0951872 L24.7782258,14.631016 C24.7782258,15.3016043 24.233871,15.8705882 23.5483871,15.8705882 L23.5282258,23.8160428 C24.2137097,23.8363636 24.7580645,24.3850267 24.7580645,25.055615 L24.7580645,28.5304813 C24.7580645,29.2010695 24.2137097,29.7700535 23.5282258,29.7700535 L23.5080645,36.6791444 C23.5282258,37.3497326 22.983871,37.8983957 22.3185484,37.8983957 Z M1.41129032,25.055615 L1.39112903,28.5304813 L1.43145161,28.5508021 C2.09677419,28.5508021 2.66129032,29.0994652 2.66129032,29.7903743 L2.66129032,36.6994652 L22.3185484,36.7197861 C22.3185484,36.7197861 22.3387097,36.7197861 22.3387097,36.6994652 L22.3387097,29.7903743 C22.3387097,29.1197861 22.8830645,28.5508021 23.5685484,28.5508021 L23.5887097,25.0759358 C22.9032258,25.055615 22.358871,24.5069519 22.358871,23.8363636 L22.358871,15.8909091 C22.358871,15.2203209 22.9032258,14.6513369 23.5887097,14.6513369 L23.608871,11.1764706 C22.9233871,11.1561497 22.3790323,10.6074866 22.3790323,9.9368984 L22.3790323,3.02780749 L2.72177419,3.00748663 L2.7016129,9.91657754 C2.7016129,10.5871658 2.15725806,11.1561497 1.47177419,11.1561497 L1.4516129,11.1561497 L1.43145161,14.631016 L1.47177419,14.6513369 C2.13709677,14.6513369 2.7016129,15.2 2.7016129,15.8909091 L2.7016129,23.8363636 C2.7016129,24.5069519 2.15725806,25.0759358 1.47177419,25.0759358 L1.41129032,25.0759358 L1.41129032,25.055615 Z" id="Shape" fill="#1F2120"></path>
                        <rect id="Rectangle-path" fill="#1F2120" x="0.0403225806" y="1.78823529" width="24.9596774" height="1.21925134"></rect>
                        <rect id="Rectangle-path" fill="#1F2120" x="0.0403225806" y="36.6791444" width="24.9596774" height="1.21925134"></rect>
                        <rect id="Rectangle-path" fill="#1F2120" x="2.03629032" y="9.30695187" width="17.2983871" height="1.21925134"></rect>
                        <rect id="Rectangle-path" fill="#1F2120" x="2.03629032" y="14.8748663" width="17.2983871" height="1.21925134"></rect>
                        <rect id="Rectangle-path" fill="#1F2120" x="2.03629032" y="23.4705882" width="17.2983871" height="1.21925134"></rect>
                        <rect id="Rectangle-path" fill="#1F2120" x="2.03629032" y="29.0181818" width="17.2983871" height="1.21925134"></rect>
                        <path d="M22.0564516,3.00748663 L17.2177419,3.00748663 L17.2177419,0.142245989 L22.0564516,0.142245989 L22.0564516,3.00748663 Z M18.4475806,1.78823529 L20.8669355,1.78823529 L20.8669355,1.36149733 L18.4475806,1.36149733 L18.4475806,1.78823529 Z" id="Shape" fill="#1F2120"></path>
                    </g>
                    <g id="OILBarrel" transform="translate(30.000000, 36.000000)">
                        <path d="M24.1532258,14.631016 L24.1532258,11.1561497 C24.1532258,10.8106952 23.8709677,10.5262032 23.5282258,10.5262032 C23.1854839,10.5262032 22.9032258,10.2417112 22.9032258,9.89625668 L22.9032258,2.98716578 C22.9032258,2.64171123 22.6209677,2.35721925 22.2782258,2.35721925 L2.62096774,2.35721925 C2.27822581,2.35721925 1.99596774,2.64171123 1.99596774,2.98716578 L1.99596774,9.89625668 C1.99596774,10.2417112 1.71370968,10.5262032 1.37096774,10.5262032 C1.00806452,10.5262032 0.725806452,10.8106952 0.725806452,11.1561497 L0.725806452,14.631016 C0.725806452,14.9764706 1.00806452,15.2609626 1.35080645,15.2609626 C1.71370968,15.2609626 1.99596774,15.5454545 1.99596774,15.8909091 L1.99596774,23.8363636 C1.99596774,24.1818182 1.71370968,24.4663102 1.37096774,24.4663102 C1.00806452,24.4663102 0.725806452,24.7508021 0.725806452,25.0962567 L0.725806452,28.571123 C0.725806452,28.9165775 1.00806452,29.2010695 1.35080645,29.2010695 C1.71370968,29.2010695 1.99596774,29.4855615 1.99596774,29.831016 L1.99596774,36.740107 C1.99596774,37.0855615 2.27822581,37.3700535 2.62096774,37.3700535 L22.2782258,37.3700535 C22.6209677,37.3700535 22.9032258,37.0855615 22.9032258,36.740107 L22.9032258,29.831016 C22.9032258,29.4855615 23.1854839,29.2010695 23.5282258,29.2010695 C23.8709677,29.2010695 24.1532258,28.9165775 24.1532258,28.571123 L24.1532258,25.0962567 C24.1532258,24.7508021 23.8709677,24.4663102 23.5282258,24.4663102 C23.1854839,24.4663102 22.9032258,24.1818182 22.9032258,23.8363636 L22.9032258,15.8909091 C22.9032258,15.5454545 23.1854839,15.2609626 23.5282258,15.2609626 C23.891129,15.2609626 24.1532258,14.9764706 24.1532258,14.631016 Z" id="Shape" fill="#FFFFFF"></path>
                        <path d="M11.6532258,37.2887701 L2.68145161,37.2887701 C2.33870968,37.2887701 2.05645161,37.0042781 2.05645161,36.6588235 L2.05645161,29.7497326 C2.05645161,29.4042781 1.77419355,29.1197861 1.43145161,29.1197861 L1.41129032,29.1197861 C1.06854839,29.1197861 0.786290323,28.8352941 0.786290323,28.4898396 L0.786290323,25.0149733 C0.786290323,24.6695187 1.06854839,24.3850267 1.41129032,24.3850267 L1.43145161,24.3850267 C1.77419355,24.3850267 2.05645161,24.1005348 2.05645161,23.7550802 L2.05645161,15.8096257 C2.05645161,15.4641711 1.77419355,15.1796791 1.43145161,15.1796791 L1.41129032,15.1796791 C1.06854839,15.1796791 0.786290323,14.8951872 0.786290323,14.5497326 L0.786290323,11.0748663 C0.786290323,10.7294118 1.06854839,10.4449198 1.41129032,10.4449198 L1.43145161,10.4449198 C1.77419355,10.4449198 2.05645161,10.1604278 2.05645161,9.81497326 L2.05645161,2.90588235 C2.05645161,2.56042781 2.33870968,2.27593583 2.68145161,2.27593583 L11.6532258,2.27593583 C11.3104839,2.27593583 11.0282258,2.56042781 11.0282258,2.90588235 L11.0282258,9.81497326 C11.0282258,10.1604278 10.7459677,10.4449198 10.4032258,10.4449198 L10.3830645,10.4449198 C10.0403226,10.4449198 9.75806452,10.7294118 9.75806452,11.0748663 L9.75806452,14.631016 C9.75806452,14.9764706 10.0403226,15.2609626 10.3830645,15.2609626 L10.4032258,15.2609626 C10.7459677,15.2609626 11.0282258,15.5454545 11.0282258,15.8909091 L11.0282258,23.8363636 C11.0282258,24.1818182 10.7459677,24.4663102 10.4032258,24.4663102 L10.3830645,24.4663102 C10.0403226,24.4663102 9.75806452,24.7508021 9.75806452,25.0962567 L9.75806452,28.571123 C9.75806452,28.9165775 10.0403226,29.2010695 10.3830645,29.2010695 L10.4032258,29.2010695 C10.7459677,29.2010695 11.0282258,29.4855615 11.0282258,29.831016 L11.0282258,36.740107 C11.0282258,37.0245989 11.3104839,37.2887701 11.6532258,37.2887701 Z" id="Shape" fill="#FEBF39"></path>
                        <path d="M22.3185484,37.8983957 L2.66129032,37.8983957 C1.99596774,37.8983957 1.43145161,37.3497326 1.43145161,36.6588235 L1.43145161,29.7497326 L1.39112903,29.7294118 C0.725806452,29.7294118 0.161290323,29.1807487 0.161290323,28.4898396 L0.161290323,25.0149733 C0.161290323,24.344385 0.705645161,23.7754011 1.39112903,23.7754011 L1.41129032,23.7754011 L1.43145161,15.8299465 L1.39112903,15.8096257 C0.725806452,15.8096257 0.161290323,15.2609626 0.161290323,14.5700535 L0.161290323,11.0951872 C0.161290323,10.4245989 0.705645161,9.85561497 1.39112903,9.85561497 L1.41129032,9.85561497 L1.43145161,2.94652406 C1.43145161,2.27593583 1.97580645,1.70695187 2.66129032,1.70695187 L22.3185484,1.70695187 C22.983871,1.70695187 23.5483871,2.25561497 23.5483871,2.94652406 L23.5483871,9.85561497 C24.233871,9.87593583 24.7782258,10.4245989 24.7782258,11.0951872 L24.7782258,14.631016 C24.7782258,15.3016043 24.233871,15.8705882 23.5483871,15.8705882 L23.5282258,23.8160428 C24.2137097,23.8363636 24.7580645,24.3850267 24.7580645,25.055615 L24.7580645,28.5304813 C24.7580645,29.2010695 24.2137097,29.7700535 23.5282258,29.7700535 L23.5080645,36.6791444 C23.5282258,37.3497326 22.983871,37.8983957 22.3185484,37.8983957 Z M1.41129032,25.055615 L1.39112903,28.5304813 L1.43145161,28.5508021 C2.09677419,28.5508021 2.66129032,29.0994652 2.66129032,29.7903743 L2.66129032,36.6994652 L22.3185484,36.7197861 C22.3185484,36.7197861 22.3387097,36.7197861 22.3387097,36.6994652 L22.3387097,29.7903743 C22.3387097,29.1197861 22.8830645,28.5508021 23.5685484,28.5508021 L23.5887097,25.0759358 C22.9032258,25.055615 22.358871,24.5069519 22.358871,23.8363636 L22.358871,15.8909091 C22.358871,15.2203209 22.9032258,14.6513369 23.5887097,14.6513369 L23.608871,11.1764706 C22.9233871,11.1561497 22.3790323,10.6074866 22.3790323,9.9368984 L22.3790323,3.02780749 L2.72177419,3.00748663 L2.7016129,9.91657754 C2.7016129,10.5871658 2.15725806,11.1561497 1.47177419,11.1561497 L1.4516129,11.1561497 L1.43145161,14.631016 L1.47177419,14.6513369 C2.13709677,14.6513369 2.7016129,15.2 2.7016129,15.8909091 L2.7016129,23.8363636 C2.7016129,24.5069519 2.15725806,25.0759358 1.47177419,25.0759358 L1.41129032,25.0759358 L1.41129032,25.055615 Z" id="Shape" fill="#1F2120"></path>
                        <rect id="Rectangle-path" fill="#1F2120" x="0.0403225806" y="1.78823529" width="24.9596774" height="1.21925134"></rect>
                        <rect id="Rectangle-path" fill="#1F2120" x="0.0403225806" y="36.6791444" width="24.9596774" height="1.21925134"></rect>
                        <rect id="Rectangle-path" fill="#1F2120" x="2.03629032" y="9.30695187" width="17.2983871" height="1.21925134"></rect>
                        <rect id="Rectangle-path" fill="#1F2120" x="2.03629032" y="14.8748663" width="17.2983871" height="1.21925134"></rect>
                        <rect id="Rectangle-path" fill="#1F2120" x="2.03629032" y="23.4705882" width="17.2983871" height="1.21925134"></rect>
                        <rect id="Rectangle-path" fill="#1F2120" x="2.03629032" y="29.0181818" width="17.2983871" height="1.21925134"></rect>
                        <path d="M22.0564516,3.00748663 L17.2177419,3.00748663 L17.2177419,0.142245989 L22.0564516,0.142245989 L22.0564516,3.00748663 Z M18.4475806,1.78823529 L20.8669355,1.78823529 L20.8669355,1.36149733 L18.4475806,1.36149733 L18.4475806,1.78823529 Z" id="Shape" fill="#1F2120"></path>
                    </g>
                </g>
            </g>
        </g>
    </g>
</svg>