<?xml version="1.0" encoding="UTF-8"?>
<svg width="184px" height="175px" viewBox="0 0 184 175" version="1.1" xmlns="http://www.w3.org/2000/svg" xmlns:xlink="http://www.w3.org/1999/xlink">
    <!-- Generator: Sketch 42 (36781) - http://www.bohemiancoding.com/sketch -->
    <title>OILRockingMachine</title>
    <desc>Created with Sketch.</desc>
    <defs></defs>
    <g id="Guest-Access" stroke="none" stroke-width="1" fill="none" fill-rule="evenodd">
        <g id="LandingPage" transform="translate(-1167.000000, -250.000000)">
            <g id="block1" transform="translate(0.000000, 86.000000)">
                <g id="OILRockingMachine" transform="translate(1167.000000, 164.000000)">
                    <path d="M30.0198113,173.239257 L1.45518868,173.239257 L1.45518868,163.265782 C1.45518868,158.927321 4.93867925,155.436605 9.26816038,155.436605 L22.1570755,155.436605 C26.4865566,155.436605 29.9700472,158.927321 29.9700472,163.265782 L29.9700472,173.239257 L30.0198113,173.239257 Z" id="Shape" fill="#FFFFFF" fill-rule="nonzero"></path>
                    <path d="M13.1,171.144828 L13.1,173.239257 L1.45518868,173.239257 L1.45518868,163.714589 C1.45518868,160.872149 2.89834906,158.37878 5.03820755,156.882759 L8.87004717,160.772414 C11.6070755,163.515119 13.1,167.255172 13.1,171.144828 Z" id="Shape" fill="#FEBF39" fill-rule="nonzero"></path>
                    <polygon id="Shape" fill="#FFFFFF" fill-rule="nonzero" points="154.08184 33.0122016 15.6379717 88.3151194 13.2492925 82.2811671 151.742925 26.9782493"></polygon>
                    <polygon id="Shape" fill="#1F2120" fill-rule="nonzero" points="14.7919811 90.2599469 11.3084906 81.4832891 151.145755 25.6318302 152.29033 28.3745358 15.1900943 83.1289125 16.4839623 86.3702918 153.534434 31.6159151 154.629245 34.3586207"></polygon>
                    <g id="Group" stroke-width="1" fill-rule="evenodd" transform="translate(138.804245, 0.000000)">
                        <ellipse id="Oval" fill="#FFFFFF" fill-rule="nonzero" cx="13.6851415" cy="29.7209549" rx="8.31061321" ry="8.32785146"></ellipse>
                        <path d="M13.6851415,39.5448276 C9.80353774,39.5448276 6.32004717,37.2509284 4.72759434,33.7103448 C3.68254717,31.3167109 3.58301887,28.6238727 4.52853774,26.1803714 C5.4740566,23.73687 7.31533019,21.7920424 9.70400943,20.6949602 C10.9978774,20.1464191 12.3415094,19.8472149 13.6851415,19.8472149 C17.5667453,19.8472149 21.0502358,22.1411141 22.6426887,25.6816976 C24.8323113,30.6185676 22.6426887,36.4530504 17.6662736,38.6472149 C16.4221698,39.2954907 15.0785377,39.5448276 13.6851415,39.5448276 Z M13.6851415,22.8891247 C12.7396226,22.8891247 11.7941038,23.0885942 10.8983491,23.4875332 C9.25613208,24.2355438 7.96226415,25.5819629 7.31533019,27.2774536 C6.66839623,28.9729443 6.71816038,30.8180371 7.46462264,32.5135279 C8.55943396,34.9570292 10.9978774,36.5527851 13.6851415,36.5527851 C14.6306604,36.5527851 15.5761792,36.3533156 16.471934,35.9543767 C19.9056604,34.4084881 21.4483491,30.3692308 19.9056604,26.928382 C18.8108491,24.4848806 16.3724057,22.8891247 13.6851415,22.8891247 Z" id="Shape" fill="#1F2120" fill-rule="nonzero"></path>
                        <g id="Shape" fill-rule="nonzero">
                            <path d="M1.99056604,3.44084881 C14.829717,-2.2938992 30.4556604,4.83713528 36.8752358,19.2986737 C43.3445755,33.8100796 38.1691038,50.2164456 25.379717,55.9511936 L1.99056604,3.44084881 Z" fill="#FFFFFF"></path>
                            <path d="M24.6332547,57.9458886 L0,2.6928382 L1.34363208,2.09442971 C4.47877358,0.698143236 7.8129717,0 11.2964623,0 C22.5929245,0 33.1429245,7.38037135 38.2188679,18.7501326 C41.5033019,26.0806366 42.0507075,34.1591512 39.7615566,41.4397878 C37.4724057,48.7702918 32.5457547,54.4551724 25.9768868,57.3973475 L24.6332547,57.9458886 Z M3.98113208,4.28859416 L26.1261792,54.006366 C31.2518868,51.2636605 35.0837264,46.5262599 36.9747642,40.5421751 C39.0150943,33.9596817 38.5174528,26.6790451 35.5813679,19.996817 C31.003066,9.67427056 21.4981132,3.04190981 11.3959906,3.04190981 C8.80825472,2.99204244 6.32004717,3.39098143 3.98113208,4.28859416 Z" fill="#1F2120"></path>
                            <g transform="translate(8.459906, 6.482759)" fill="#FEBF39">
                                <path d="M18.9103774,42.2875332 L11.8438679,26.4297082 L25.1806604,32.0148541 C25.1308962,32.0148541 23.4886792,38.3480106 18.9103774,42.2875332 Z"></path>
                                <path d="M0.298584906,0.49867374 L7.41485849,16.4562334 L12.0926887,2.6928382 C12.0926887,2.6928382 6.27028302,-0.299204244 0.298584906,0.49867374 Z"></path>
                                <path d="M25.379717,28.5241379 C25.379717,28.5241379 26.8726415,23.8864721 23.7872642,16.0074271 L23.8370283,16.0074271 C23.7375,15.7580902 23.5882075,15.4588859 23.4886792,15.2095491 C23.3891509,14.9602122 23.2398585,14.661008 23.1403302,14.4116711 L23.090566,14.4116711 C19.2587264,6.83183024 14.829717,4.83713528 14.829717,4.83713528 L9.65424528,19.6477454 L10.8983491,22.4403183 L25.379717,28.5241379 Z"></path>
                            </g>
                        </g>
                    </g>
                    <g id="Group" stroke-width="1" fill-rule="evenodd" transform="translate(70.627358, 55.352785)" fill="#1F2120">
                        <path d="M53.1978774,95.0970822 L0.348349057,95.0970822 L14.6306604,0.199469496 L38.915566,0.199469496 L53.1978774,95.0970822 Z M3.83183962,92.1050398 L49.7641509,92.1050398 L36.3278302,3.14164456 L17.1686321,3.14164456 L3.83183962,92.1050398 Z" id="Shape" fill-rule="nonzero"></path>
                        <rect id="Rectangle-path" fill-rule="nonzero" x="6.81768868" y="60.3395225" width="39.9108491" height="2.99204244"></rect>
                        <rect id="Rectangle-path" fill-rule="nonzero" x="10.7490566" y="34.5580902" width="32.0978774" height="2.99204244"></rect>
                        <rect id="Rectangle-path" fill-rule="nonzero" x="13.834434" y="13.9628647" width="25.8773585" height="2.99204244"></rect>
                        <polygon id="Shape" fill-rule="nonzero" points="50.3115566 94.4986737 26.7731132 64.2790451 3.28443396 94.4986737 0.895754717 92.6535809 26.7731132 59.4419098 52.6504717 92.6535809"></polygon>
                        <path d="M26.7731132,94.5984085 C26.0764151,94.5984085 25.4294811,94.2493369 25.0313679,93.6509284 L5.52382075,62.6832891 L8.06179245,61.0875332 L26.7731132,90.8084881 L45.4346698,61.0875332 L47.9726415,62.6832891 L28.5148585,93.6509284 C28.1665094,94.1994695 27.5195755,94.5984085 26.7731132,94.5984085 L26.7731132,94.5984085 Z" id="Shape" fill-rule="nonzero"></path>
                        <polygon id="Shape" fill-rule="nonzero" points="26.7731132 64.6779841 9.45518868 36.8519894 11.9931604 35.2562334 26.7731132 59.0429708 41.553066 35.2562334 44.0910377 36.8519894"></polygon>
                        <polygon id="Shape" fill-rule="nonzero" points="8.0120283 62.7830239 5.62334906 60.937931 26.9224057 33.6106101 47.8731132 60.937931 45.5341981 62.7830239 26.8726415 38.4976127"></polygon>
                        <polygon id="Shape" fill-rule="nonzero" points="11.8936321 36.9517241 9.55471698 35.1564987 26.7731132 13.065252 43.9915094 35.1564987 41.6525943 36.9517241 26.7731132 17.9023873"></polygon>
                        <polygon id="Shape" fill-rule="nonzero" points="26.9224057 38.8466844 12.5903302 16.2567639 15.0785377 14.661008 26.8726415 33.2615385 38.4676887 14.661008 41.0056604 16.2567639"></polygon>
                        <rect id="Rectangle-path" fill-rule="nonzero" x="25.2801887" y="1.64562334" width="2.98584906" height="91.9055703"></rect>
                        <polygon id="Shape" fill-rule="nonzero" points="26.7731132 17.9023873 14.7301887 2.59310345 17.0691038 0.74801061 26.7731132 13.065252 36.4771226 0.74801061 38.8160377 2.59310345"></polygon>
                        <path d="M14.9292453,16.5061008 L12.7396226,14.4615385 L24.9816038,1.39628647 C25.4294811,0.897612732 26.0764151,0.648275862 26.7731132,0.648275862 L26.7731132,0.648275862 C27.4698113,0.648275862 28.1167453,0.947480106 28.5646226,1.44615385 L40.8066038,14.4615385 L38.6169811,16.5061008 L26.7731132,3.8397878 L14.9292453,16.5061008 Z" id="Shape" fill-rule="nonzero"></path>
                    </g>
                    <rect id="Rectangle-path" fill="#FFFFFF" fill-rule="nonzero" x="57.4896226" y="148.953846" width="79.8714623" height="24.2854111"></rect>
                    <path d="M138.854009,174.735279 L55.9966981,174.735279 L55.9966981,147.457825 L138.854009,147.457825 L138.854009,174.735279 Z M58.9825472,171.743236 L135.86816,171.743236 L135.86816,150.449867 L58.9825472,150.449867 L58.9825472,171.743236 Z" id="Shape" fill="#1F2120" fill-rule="nonzero"></path>
                    <path d="M105.163679,49.9172414 C105.760849,48.7204244 106.109198,47.3740053 106.109198,45.9777188 C106.109198,41.0907162 102.128066,37.1013263 97.2511792,37.1013263 C92.3742925,37.1013263 88.3931604,41.0907162 88.3931604,45.9777188 C88.3931604,47.3740053 88.7415094,48.7204244 89.3386792,49.9172414 L77.4948113,49.9172414 C77.4948113,53.8567639 80.679717,57.0482759 84.6110849,57.0482759 L110.289387,57.0482759 C114.220755,57.0482759 117.40566,53.8567639 117.40566,49.9172414 L105.163679,49.9172414 Z" id="Shape" fill="#FFFFFF" fill-rule="nonzero"></path>
                    <path d="M110.239623,58.4944297 L84.5613208,58.4944297 C79.8337264,58.4944297 75.9521226,54.6546419 75.9521226,49.867374 L75.9521226,48.3713528 L87.1490566,48.3713528 C86.95,47.5734748 86.8504717,46.7755968 86.8504717,45.9278515 C86.8504717,40.1931034 91.4785377,35.5554377 97.2014151,35.5554377 C102.924292,35.5554377 107.552358,40.1931034 107.552358,45.9278515 C107.552358,46.7755968 107.45283,47.5734748 107.253774,48.3713528 L118.799057,48.3713528 L118.799057,49.867374 C118.848821,54.6546419 115.016981,58.4944297 110.239623,58.4944297 Z M79.1370283,51.4132626 C79.7839623,53.8068966 81.9735849,55.5522546 84.5613208,55.5522546 L110.239623,55.5522546 C112.827358,55.5522546 114.967217,53.8068966 115.663915,51.4132626 L102.775,51.4132626 L103.869811,49.2689655 C104.367453,48.2217507 104.666038,47.1246684 104.666038,45.9777188 C104.666038,41.8885942 101.381604,38.5973475 97.3009434,38.5973475 C93.220283,38.5973475 89.9358491,41.8885942 89.9358491,45.9777188 C89.9358491,47.1246684 90.1846698,48.2217507 90.7320755,49.2689655 L91.8268868,51.4132626 L79.1370283,51.4132626 Z" id="Shape" fill="#1F2120" fill-rule="nonzero"></path>
                    <path d="M101.680189,49.4185676 C101.680189,51.8122016 99.7393868,53.7071618 97.4004717,53.7071618 C95.0117925,53.7071618 93.1207547,51.7623342 93.1207547,49.4185676 C93.1207547,48.2217507 93.6183962,47.1745358 94.3648585,46.3766578 C94.7629717,47.6732095 95.9573113,48.6206897 97.4004717,48.6206897 C98.8436321,48.6206897 100.037972,47.6732095 100.436085,46.3766578 C101.232311,47.1745358 101.680189,48.271618 101.680189,49.4185676 Z" id="Shape" fill="#FEBF39" fill-rule="nonzero"></path>
                    <path d="M97.4004717,50.1665782 C94.8127358,50.1665782 92.7226415,48.0721485 92.7226415,45.4790451 C92.7226415,42.8859416 94.8127358,40.7915119 97.4004717,40.7915119 C99.9882075,40.7915119 102.078302,42.8859416 102.078302,45.4790451 C102.078302,48.0721485 99.9882075,50.1665782 97.4004717,50.1665782 Z M97.4004717,43.7835544 C96.4549528,43.7835544 95.7084906,44.531565 95.7084906,45.4790451 C95.7084906,46.4265252 96.4549528,47.1745358 97.4004717,47.1745358 C98.3459906,47.1745358 99.0924528,46.4265252 99.0924528,45.4790451 C99.0924528,44.531565 98.3459906,43.7835544 97.4004717,43.7835544 Z" id="Shape" fill="#1F2120" fill-rule="nonzero"></path>
                    <rect id="Rectangle-path" fill="#1F2120" fill-rule="nonzero" x="14.1450472" y="88.3151194" width="2.98584906" height="67.071618"></rect>
                    <path d="M31.5127358,174.735279 L0.0120283019,174.735279 L0.0120283019,163.265782 C0.0120283019,158.129443 4.19221698,153.940584 9.31792453,153.940584 L22.2068396,153.940584 C27.3325472,153.940584 31.5127358,158.129443 31.5127358,163.265782 L31.5127358,174.735279 L31.5127358,174.735279 Z M2.99787736,171.743236 L28.5766509,171.743236 L28.5766509,163.265782 C28.5766509,159.775066 25.7400943,156.932626 22.2566038,156.932626 L9.36768868,156.932626 C5.88419811,156.932626 3.04764151,159.775066 3.04764151,163.265782 L3.04764151,171.743236 L2.99787736,171.743236 Z" id="Shape" fill="#1F2120" fill-rule="nonzero"></path>
                    <rect id="Rectangle-path" fill="#1F2120" fill-rule="nonzero" x="174.286085" y="44.4816976" width="2.98584906" height="92.803183"></rect>
                    <path d="M178.466274,173.239257 L173.141509,173.239257 C171.399764,173.239257 169.956604,171.793103 169.956604,170.047745 L169.956604,140.177188 C169.956604,138.43183 171.399764,136.985676 173.141509,136.985676 L178.466274,136.985676 C180.208019,136.985676 181.651179,138.43183 181.651179,140.177188 L181.651179,170.047745 C181.651179,171.793103 180.208019,173.239257 178.466274,173.239257 Z" id="Shape" fill="#FFFFFF" fill-rule="nonzero"></path>
                    <path d="M181.651179,149.003714 L169.956604,160.572944 L169.956604,169.848276 C169.956604,171.693369 171.449528,173.18939 173.290802,173.18939 L178.267217,173.18939 C180.108491,173.18939 181.601415,171.693369 181.601415,169.848276 L181.601415,149.003714 L181.651179,149.003714 Z" id="Shape" fill="#FEBF39" fill-rule="nonzero"></path>
                    <path d="M178.466274,174.735279 L173.141509,174.735279 C170.553774,174.735279 168.463679,172.640849 168.463679,170.047745 L168.463679,140.177188 C168.463679,137.584085 170.553774,135.489655 173.141509,135.489655 L178.466274,135.489655 C181.054009,135.489655 183.144104,137.584085 183.144104,140.177188 L183.144104,170.047745 C183.144104,172.590981 181.054009,174.735279 178.466274,174.735279 Z M173.141509,138.481698 C172.195991,138.481698 171.449528,139.229708 171.449528,140.177188 L171.449528,170.047745 C171.449528,170.995225 172.195991,171.743236 173.141509,171.743236 L178.466274,171.743236 C179.411792,171.743236 180.158255,170.995225 180.158255,170.047745 L180.158255,140.177188 C180.158255,139.229708 179.411792,138.481698 178.466274,138.481698 L173.141509,138.481698 Z" id="Shape" fill="#1F2120" fill-rule="nonzero"></path>
                </g>
            </g>
        </g>
    </g>
</svg>