<?xml version="1.0" encoding="UTF-8"?>
<svg width="263px" height="125px" viewBox="0 0 263 125" version="1.1" xmlns="http://www.w3.org/2000/svg" xmlns:xlink="http://www.w3.org/1999/xlink">
    <!-- Generator: Sketch 42 (36781) - http://www.bohemiancoding.com/sketch -->
    <title>Ship</title>
    <desc>Created with Sketch.</desc>
    <defs></defs>
    <g id="Guest-Access" stroke="none" stroke-width="1" fill="none" fill-rule="evenodd">
        <g id="LandingPage" transform="translate(-472.000000, -324.000000)" fill-rule="nonzero">
            <g id="block1" transform="translate(0.000000, 86.000000)">
                <g id="Ship" transform="translate(472.000000, 238.000000)">
                    <path d="M11,121.4 L4.3,87.6 L254.7,87.6 L230.3,111.3 C223.6,117.8 214.7,121.4 205.5,121.4 L11,121.4 L11,121.4 Z" id="Shape" fill="#FFFFFF"></path>
                    <path d="M205.4,124.4 L8.5,124.4 L0.6,84.6 L262.1,84.6 L232.3,113.5 C225.1,120.5 215.5,124.4 205.4,124.4 Z M13.5,118.4 L205.5,118.4 C214,118.4 222.1,115.1 228.2,109.2 L247.3,90.6 L7.9,90.6 L13.5,118.4 Z" id="Shape" fill="#1F2120"></path>
                    <rect id="Rectangle-path" fill="#FEBF39" x="91.8" y="69.9" width="26.8" height="17.8"></rect>
                    <circle id="Oval" fill="#FEBF39" cx="43.9" cy="10.4" r="9.5"></circle>
                    <circle id="Oval" fill="#FEBF39" cx="29.1" cy="8.8" r="7.6"></circle>
                    <rect id="Rectangle-path" fill="#FFFFFF" x="17.8" y="48.7" width="56.2" height="39"></rect>
                    <path d="M77,90.6 L14.8,90.6 L14.8,45.6 L77,45.6 L77,90.6 Z M20.8,84.6 L71,84.6 L71,51.6 L20.8,51.6 L20.8,84.6 Z" id="Shape" fill="#1F2120"></path>
                    <circle id="Oval" fill="#FEBF39" cx="32.8" cy="63.6" r="4.6"></circle>
                    <circle id="Oval" fill="#FEBF39" cx="46.4" cy="63.6" r="4.6"></circle>
                    <circle id="Oval" fill="#FEBF39" cx="59.9" cy="63.6" r="4.6"></circle>
                    <path d="M53.9,26.6 L46.1,26.6 L38.3,26.6 C38.3,26.6 38.8,42.6 32,48.6 L46.1,48.6 L60.2,48.6 C53.4,42.7 53.9,26.6 53.9,26.6 Z" id="Shape" fill="#FFFFFF"></path>
                    <path d="M68.1,51.7 L24,51.7 L29.9,46.5 C34.6,42.4 35.3,30.9 35.2,26.8 L35.1,23.7 L57,23.7 L56.9,26.8 C56.8,30.9 57.5,42.4 62.2,46.5 L68.1,51.7 Z M37.8,45.7 L54.5,45.7 C52.8,42.3 51.1,37.1 50.9,29.7 L41.2,29.7 C41.1,33.5 40.4,40.3 37.8,45.7 Z" id="Shape" fill="#1F2120"></path>
                    <path d="M121.6,90.6 L88.8,90.6 L88.8,66.8 L121.6,66.8 L121.6,90.6 Z M94.8,84.6 L115.6,84.6 L115.6,72.8 L94.8,72.8 L94.8,84.6 Z" id="Shape" fill="#1F2120"></path>
                    <rect id="Rectangle-path" fill="#FEBF39" x="132.5" y="69.9" width="26.8" height="17.8"></rect>
                    <path d="M162.3,90.6 L129.5,90.6 L129.5,66.8 L162.3,66.8 L162.3,90.6 Z M135.5,84.6 L156.3,84.6 L156.3,72.8 L135.5,72.8 L135.5,84.6 Z" id="Shape" fill="#1F2120"></path>
                    <rect id="Rectangle-path" fill="#FEBF39" x="173.2" y="69.9" width="26.8" height="17.8"></rect>
                    <path d="M203,90.6 L170.2,90.6 L170.2,66.8 L203,66.8 L203,90.6 Z M176.2,84.6 L197,84.6 L197,72.8 L176.2,72.8 L176.2,84.6 Z" id="Shape" fill="#1F2120"></path>
                    <rect id="Rectangle-path" fill="#FEBF39" x="213.9" y="69.9" width="26.8" height="17.8"></rect>
                    <path d="M243.7,90.6 L210.9,90.6 L210.9,66.8 L243.7,66.8 L243.7,90.6 Z M216.9,84.6 L237.7,84.6 L237.7,72.8 L216.9,72.8 L216.9,84.6 Z" id="Shape" fill="#1F2120"></path>
                </g>
            </g>
        </g>
    </g>
</svg>