<?xml version="1.0" encoding="UTF-8"?>
<svg width="274px" height="50px" viewBox="0 0 274 50" version="1.1" xmlns="http://www.w3.org/2000/svg" xmlns:xlink="http://www.w3.org/1999/xlink">
    <!-- Generator: Sketch 42 (36781) - http://www.bohemiancoding.com/sketch -->
    <title>Waves</title>
    <desc>Created with Sketch.</desc>
    <defs></defs>
    <g id="Guest-Access" stroke="none" stroke-width="1" fill="none" fill-rule="evenodd">
        <g id="LandingPage" transform="translate(0.000000, -424.000000)" fill-rule="nonzero">
            <g id="block1" transform="translate(0.000000, 86.000000)">
                <g id="Waves+Land" transform="translate(0.000000, 338.000000)">
                    <g id="Waves">
                        <path d="M274,2.4430137 L274,49.0583562 L0,49.0583562 L0,2.3109589 C6.08888889,2.3109589 12.1115942,4.62191781 16.7444444,9.24383562 L16.9429952,9.44191781 C21.5758454,14.0638356 27.6647343,16.3747945 33.8198068,16.3747945 C39.9748792,16.3747945 46.1299517,13.9978082 50.7628019,9.30986301 C60.0285024,-0.0660273973 75.1845411,-0.132054795 84.5826087,9.24383562 L84.7811594,9.44191781 C89.4140097,14.0638356 95.5028986,16.3747945 101.657971,16.3747945 C107.813043,16.3747945 113.968116,13.9978082 118.600966,9.30986301 C127.866667,-0.0660273973 143.088889,-0.132054795 152.420773,9.24383562 L152.619324,9.44191781 C157.252174,14.0638356 163.407246,16.3747945 169.496135,16.3747945 C175.651208,16.3747945 181.80628,13.9978082 186.43913,9.30986301 C195.704831,-0.0660273973 210.86087,-0.132054795 220.258937,9.24383562 L220.457488,9.44191781 C229.789372,18.7517808 244.945411,18.7517808 254.277295,9.30986301 C259.571981,3.89561644 266.918357,1.58465753 274,2.4430137 Z" id="Shape" fill="#FEBF39"></path>
                        <path d="M169.148334,18.3556164 C162.279366,18.3556164 155.806685,15.6484932 150.91915,10.8284932 L150.721007,10.630411 C146.626045,6.53671233 141.14408,4.22575342 135.331877,4.22575342 C129.387577,4.22575342 123.905613,6.53671233 119.810651,10.6964384 C114.923116,15.5824658 108.450435,18.3556164 101.581467,18.3556164 C94.6464515,18.4216438 88.1737703,15.7145205 83.2862354,10.8284932 L83.0880921,10.630411 C78.9931305,6.53671233 73.5111658,4.22575342 67.6989622,4.22575342 C61.7546631,4.22575342 56.2726983,6.53671233 52.1777367,10.6964384 C47.2902019,15.5824658 40.8175206,18.3556164 33.9485527,18.3556164 C27.0135371,18.3556164 20.5408558,15.6484932 15.653321,10.8284932 L15.4551777,10.630411 C11.3602161,6.53671233 5.81220358,4.29178082 0,4.29178082 L0,0.264109589 C6.93501564,0.264109589 13.4076969,2.97123288 18.2952317,7.79123288 L18.493375,7.98931507 C22.6543844,12.1490411 28.1363492,14.3939726 33.9485527,14.3939726 C39.8268041,14.3939726 45.3087688,12.0830137 49.4037304,7.92328767 C54.2912653,3.03726027 60.7639465,0.264109589 67.6329144,0.264109589 C74.56793,0.264109589 81.0406113,2.97123288 85.9281461,7.79123288 L86.1262894,7.98931507 C90.2212511,12.0830137 95.7032158,14.3939726 101.515419,14.3939726 C107.459719,14.3939726 112.941683,12.0830137 117.036645,7.92328767 C121.92418,3.03726027 128.396861,0.264109589 135.265829,0.264109589 C142.134797,0.264109589 148.673526,2.90520548 153.561061,7.79123288 L153.759204,7.98931507 C157.854165,12.0830137 163.33613,14.3939726 169.148334,14.3939726 C175.092633,14.3939726 180.574598,12.0830137 184.669559,7.92328767 C189.557094,3.03726027 196.029775,0.264109589 202.898743,0.264109589 C209.833759,0.264109589 216.30644,2.97123288 221.193975,7.79123288 L221.392118,7.98931507 C225.553128,12.1490411 231.035092,14.3939726 236.847296,14.3939726 C242.725547,14.3939726 248.207512,12.0830137 252.302474,7.92328767 C257.916534,2.24493151 266.052976,0.6484375 274,0.6484375 L274,4.29178082 C267.263128,3.49945205 259.964015,5.87643836 255.142528,10.7624658 C250.254993,15.6484932 243.782312,18.4216438 236.913344,18.4216438 C229.978328,18.4216438 223.505647,15.7145205 218.618112,10.8945205 L218.419969,10.6964384 C214.325007,6.60273973 208.843042,4.29178082 203.030839,4.29178082 C197.08654,4.29178082 191.604575,6.60273973 187.509613,10.7624658 C182.622078,15.6484932 176.149397,18.4216438 169.280429,18.4216438 C169.214382,18.3556164 169.148334,18.3556164 169.148334,18.3556164 Z" id="Shape" fill="#1F2120"></path>
                    </g>
                </g>
            </g>
        </g>
    </g>
</svg>